<?xml version="1.0" encoding="UTF-8" standalone="no"?> <svg xmlns="http://www.w3.org/2000/svg" width="40px" height="40px" viewBox="0 0 64 64"><g id="summer-sun-sunlight"><path d="M54.6,39.35c-.88,2.72,3.51,8.16,1.86,10.43-1.66,2.29-8.21-.22-10.5,1.45-2.26,1.65-1.89,8.65-4.61,9.54-2.63.85-6.44-5.01-9.35-5.01s-6.72,5.86-9.35,5.01c-2.72-.89-2.35-7.89-4.61-9.54-2.29-1.67-8.84.84-10.51-1.45-1.65-2.27,2.75-7.71,1.87-10.43C8.54,36.72,1.76,34.91,1.76,32s6.78-4.72,7.64-7.35c.88-2.72-3.51-8.16-1.86-10.43,1.66-2.29,8.21.22,10.5-1.45,2.26-1.65,1.89-8.65,4.61-9.54,2.63-.85,6.44,5.01,9.35,5.01s6.72-5.86,9.35-5.01c2.72.89,2.35,7.89,4.61,9.54,2.29,1.67,8.84-.84,10.51,1.45,1.65,2.27-2.75,7.71-1.87,10.43.86,2.63,7.64,4.44,7.64,7.35S55.46,36.72,54.6,39.35Z" style="fill:#ff9811"/><circle cx="32" cy="32" r="18" style="fill:#ffda44"/><path d="M44,25v5a4,4,0,0,1-4,4H38a4,4,0,0,1-4-4V25Z" style="fill:#3e3d42"/><path d="M30,25v5a4,4,0,0,1-4,4H24a4,4,0,0,1-4-4V25Z" style="fill:#3e3d42"/><path d="M58.83,27.09c-1.41-.88-3-1.88-3.27-2.74-.31-.93.41-2.74,1.04-4.33.92-2.33,1.88-4.73.67-6.39s-3.81-1.5-6.33-1.33c-1.69.11-3.61.23-4.39-.33-.75-.55-1.22-2.4-1.63-4.03-.63-2.46-1.28-5.01-3.26-5.66-1.92-.62-3.89,1.02-5.8,2.6C34.53,5.99,33.01,7.24,32,7.24s-2.53-1.25-3.86-2.36c-1.91-1.58-3.89-3.22-5.8-2.6-1.98.65-2.63,3.2-3.26,5.66-.41,1.63-.88,3.48-1.63,4.03-.78.56-2.7.44-4.39.32-2.52-.16-5.12-.33-6.33,1.34s-.25,4.06.67,6.39c.63,1.59,1.35,3.4,1.04,4.33-.27.86-1.86,1.86-3.27,2.74C3,28.46.76,29.87.76,32S3,35.54,5.17,36.91c1.41.88,3,1.88,3.27,2.74.31.93-.41,2.74-1.04,4.33-.92,2.33-1.88,4.73-.67,6.39s3.81,1.5,6.33,1.33c1.69-.1,3.61-.23,4.39.33.75.55,1.22,2.4,1.63,4.03.63,2.46,1.28,5.01,3.26,5.66,1.92.62,3.89-1.02,5.8-2.6,1.33-1.11,2.85-2.36,3.86-2.36s2.53,1.25,3.86,2.36c1.63,1.35,3.3,2.73,4.94,2.73a2.9,2.9,0,0,0,.86-.13c1.98-.65,2.63-3.2,3.26-5.66.41-1.63.88-3.48,1.63-4.03.78-.56,2.7-.43,4.39-.32,2.52.15,5.12.32,6.33-1.34s.25-4.06-.67-6.39c-.63-1.59-1.35-3.4-1.04-4.33.27-.86,1.86-1.86,3.27-2.74C61,35.54,63.24,34.13,63.24,32S61,28.46,58.83,27.09Zm-1.07,8.13c-1.85,1.16-3.6,2.27-4.11,3.82-.52,1.61.3,3.68,1.09,5.67.65,1.66,1.47,3.72.92,4.48-.57.78-2.8.63-4.59.52-2.23-.15-4.34-.28-5.69.71-1.34.97-1.86,3-2.4,5.15-.45,1.76-1,3.94-1.94,4.25-.87.28-2.55-1.12-3.9-2.24-1.68-1.39-3.41-2.82-5.14-2.82s-3.46,1.43-5.14,2.82c-1.35,1.12-3.04,2.52-3.9,2.24-.94-.31-1.49-2.49-1.94-4.25-.54-2.15-1.06-4.18-2.4-5.15a5.732,5.732,0,0,0-3.41-.81c-.72,0-1.49.05-2.28.1-1.79.11-4.02.26-4.59-.52-.55-.76.27-2.82.92-4.48.79-1.99,1.61-4.06,1.09-5.67-.51-1.55-2.26-2.66-4.11-3.82C4.61,34.19,2.76,33.02,2.76,32s1.85-2.19,3.48-3.22c1.85-1.16,3.6-2.27,4.11-3.82.52-1.61-.3-3.68-1.09-5.67-.65-1.66-1.47-3.72-.92-4.48.57-.78,2.8-.63,4.59-.52,2.23.15,4.34.28,5.69-.71,1.34-.97,1.86-3,2.4-5.15.45-1.76,1-3.94,1.94-4.25.86-.28,2.55,1.12,3.9,2.24C28.54,7.81,30.27,9.24,32,9.24s3.46-1.43,5.14-2.82c1.35-1.12,3.03-2.52,3.9-2.24.94.31,1.49,2.49,1.94,4.25.54,2.15,1.06,4.18,2.4,5.15,1.35.99,3.46.85,5.69.71,1.79-.12,4.02-.26,4.59.52.55.76-.27,2.82-.92,4.48-.79,1.99-1.61,4.06-1.09,5.67.51,1.55,2.26,2.66,4.11,3.82,1.63,1.03,3.48,2.2,3.48,3.22S59.39,34.19,57.76,35.22Z"/><path d="M32,13A19,19,0,1,0,51,32,19.017,19.017,0,0,0,32,13Zm0,2A17.022,17.022,0,0,1,47.89,26H45V25a1,1,0,0,0-1-1H34a1,1,0,0,0-1,1v1H31V25a1,1,0,0,0-1-1H20a1,1,0,0,0-1,1v1H16.11A17.022,17.022,0,0,1,32,15ZM43,26v4a3.009,3.009,0,0,1-3,3H38a3.009,3.009,0,0,1-3-3V26ZM29,26v4a3.009,3.009,0,0,1-3,3H24a3.009,3.009,0,0,1-3-3V26Zm3,23A16.953,16.953,0,0,1,15.49,28H19v2a5,5,0,0,0,5,5h2a5,5,0,0,0,5-5V28h2v2a5,5,0,0,0,5,5h2a5,5,0,0,0,5-5V28h3.51A16.953,16.953,0,0,1,32,49Z"/><path d="M32,45a7.008,7.008,0,0,1-7-7H23a9,9,0,0,0,18,0H39A7.008,7.008,0,0,1,32,45Z"/></g></svg>
